<svg width="1018" height="390" viewBox="0 0 1018 390" fill="none" xmlns="http://www.w3.org/2000/svg">
<path d="M51.9258 313.767C42.9068 313.767 35.9375 311.307 31.0181 306.388C26.0986 301.264 23.6388 294.192 23.6388 285.173V122.83C23.6388 113.606 26.0986 106.534 31.0181 101.615C36.1425 96.6953 43.2143 94.2355 52.2333 94.2355H127.87C152.468 94.2355 171.428 100.282 184.752 112.376C198.28 124.265 205.045 140.868 205.045 162.186C205.045 175.919 201.97 187.911 195.821 198.159C189.876 208.203 181.165 215.993 169.686 221.527C158.412 226.856 144.474 229.521 127.87 229.521L130.33 223.987H145.088C153.903 223.987 161.692 226.139 168.456 230.444C175.22 234.543 180.857 240.897 185.367 249.507L200.74 277.179C204.02 283.123 205.557 288.965 205.352 294.704C205.147 300.239 202.892 304.851 198.588 308.54C194.488 312.025 188.441 313.767 180.447 313.767C172.453 313.767 165.894 312.127 160.769 308.848C155.85 305.568 151.443 300.444 147.548 293.474L119.569 242.127C117.109 237.618 113.932 234.543 110.037 232.903C106.348 231.058 102.043 230.136 97.1235 230.136H80.2128V285.173C80.2128 294.192 77.8556 301.264 73.1411 306.388C68.4266 311.307 61.3548 313.767 51.9258 313.767ZM80.2128 190.165H117.724C128.588 190.165 136.889 188.013 142.629 183.709C148.368 179.404 151.238 172.742 151.238 163.723C151.238 155.114 148.368 148.657 142.629 144.353C136.889 139.843 128.588 137.588 117.724 137.588H80.2128V190.165ZM287.213 314.382C275.529 314.382 265.178 312.23 256.159 307.925C247.345 303.621 240.375 297.779 235.251 290.4C230.331 282.815 227.872 274.206 227.872 264.572C227.872 253.504 230.741 244.792 236.481 238.438C242.22 232.083 251.444 227.574 264.153 224.909C276.861 222.039 293.772 220.605 314.885 220.605H331.796V246.432H314.885C306.891 246.432 300.229 247.047 294.899 248.277C289.775 249.302 285.983 251.044 283.523 253.504C281.063 255.758 279.834 258.731 279.834 262.42C279.834 267.135 281.473 271.029 284.753 274.104C288.238 277.179 293.157 278.716 299.511 278.716C304.636 278.716 309.145 277.589 313.04 275.334C317.14 273.079 320.419 270.004 322.879 266.11C325.339 262.01 326.569 257.296 326.569 251.966V216.3C326.569 208.921 324.621 203.694 320.727 200.619C317.037 197.545 310.58 196.007 301.356 196.007C296.437 196.007 290.902 196.622 284.753 197.852C278.604 198.877 271.737 200.824 264.153 203.694C258.618 205.744 253.904 206.051 250.009 204.616C246.115 203.181 243.04 200.722 240.785 197.237C238.735 193.752 237.711 189.96 237.711 185.861C237.916 181.761 239.248 177.867 241.708 174.177C244.372 170.487 248.369 167.618 253.699 165.568C263.538 161.878 272.557 159.419 280.756 158.189C289.16 156.959 296.847 156.344 303.816 156.344C320.624 156.344 334.46 158.804 345.324 163.723C356.393 168.438 364.592 175.817 369.922 185.861C375.456 195.7 378.223 208.408 378.223 223.987V286.095C378.223 295.114 376.071 301.981 371.766 306.695C367.462 311.41 361.21 313.767 353.011 313.767C344.607 313.767 338.15 311.41 333.64 306.695C329.336 301.981 327.184 295.114 327.184 286.095V278.101L329.028 282.406C328.003 288.965 325.646 294.602 321.957 299.316C318.267 304.031 313.45 307.72 307.506 310.385C301.561 313.05 294.797 314.382 287.213 314.382ZM436.445 313.767C427.836 313.767 421.174 311.41 416.46 306.695C411.745 301.981 409.388 295.114 409.388 286.095V119.14C409.388 110.121 411.745 103.255 416.46 98.5401C421.174 93.8256 427.836 91.4683 436.445 91.4683C445.259 91.4683 452.023 93.8256 456.738 98.5401C461.657 103.255 464.117 110.121 464.117 119.14V220.605H464.732L502.243 175.099C507.367 168.95 512.082 164.441 516.386 161.571C520.896 158.496 526.943 156.959 534.527 156.959C542.111 156.959 547.953 158.804 552.053 162.493C556.152 166.183 558.305 170.795 558.509 176.329C558.714 181.864 556.46 187.398 551.745 192.933L511.16 240.897V221.834L556.665 279.023C561.174 284.763 563.019 290.4 562.199 295.934C561.379 301.264 558.714 305.568 554.205 308.848C549.9 312.127 544.366 313.767 537.602 313.767C529.403 313.767 522.843 312.332 517.924 309.463C513.004 306.388 508.085 301.673 503.165 295.319L464.732 247.969H464.117V286.095C464.117 304.543 454.893 313.767 436.445 313.767ZM661.665 314.382C646.291 314.382 633.583 312.025 623.539 307.31C613.7 302.596 606.321 295.524 601.401 286.095C596.482 276.461 594.022 264.47 594.022 250.121V200.004H583.568C577.009 200.004 571.884 198.262 568.195 194.777C564.71 191.293 562.968 186.271 562.968 179.711C562.968 173.152 564.71 168.233 568.195 164.953C571.884 161.468 577.009 159.726 583.568 159.726H594.022V140.663C594.022 131.644 596.379 124.777 601.094 120.063C605.808 115.348 612.572 112.991 621.387 112.991C630.201 112.991 636.965 115.348 641.679 120.063C646.394 124.777 648.751 131.644 648.751 140.663V159.726H673.963C680.728 159.726 685.852 161.468 689.337 164.953C693.026 168.233 694.871 173.152 694.871 179.711C694.871 186.271 693.026 191.293 689.337 194.777C685.852 198.262 680.728 200.004 673.963 200.004H648.751V248.277C648.751 255.861 650.493 261.498 653.978 265.187C657.668 268.672 663.407 270.414 671.196 270.414C674.066 270.414 676.833 270.107 679.498 269.492C682.163 268.877 684.622 268.57 686.877 268.57C690.157 268.365 692.821 269.389 694.871 271.644C696.921 273.694 697.946 278.511 697.946 286.095C697.946 292.244 697.023 297.471 695.179 301.776C693.334 305.876 690.054 308.848 685.34 310.693C682.47 311.717 678.575 312.537 673.656 313.152C668.736 313.972 664.739 314.382 661.665 314.382ZM788.31 314.382C771.502 314.382 756.846 311.205 744.342 304.851C731.839 298.496 722.102 289.375 715.133 277.486C708.164 265.597 704.679 251.556 704.679 235.363C704.679 223.064 706.626 212.098 710.521 202.464C714.415 192.625 720.052 184.323 727.432 177.559C734.811 170.59 743.625 165.363 753.874 161.878C764.123 158.189 775.601 156.344 788.31 156.344C805.118 156.344 819.774 159.521 832.278 165.875C844.782 172.23 854.416 181.351 861.18 193.24C868.149 204.924 871.634 218.965 871.634 235.363C871.634 247.457 869.686 258.423 865.792 268.262C861.897 278.101 856.26 286.505 848.881 293.474C841.707 300.239 832.893 305.466 822.439 309.155C812.19 312.64 800.814 314.382 788.31 314.382ZM788.31 274.104C793.844 274.104 798.764 272.772 803.068 270.107C807.373 267.237 810.653 263.035 812.907 257.501C815.367 251.761 816.597 244.382 816.597 235.363C816.597 221.629 813.932 211.791 808.603 205.846C803.273 199.697 796.509 196.622 788.31 196.622C782.776 196.622 777.856 197.955 773.552 200.619C769.247 203.284 765.865 207.486 763.405 213.225C760.945 218.76 759.716 226.139 759.716 235.363C759.716 248.892 762.38 258.731 767.71 264.88C773.039 271.029 779.906 274.104 788.31 274.104ZM924.691 313.767C915.672 313.767 908.703 311.41 903.783 306.695C899.069 301.981 896.712 295.114 896.712 286.095V184.323C896.712 175.509 898.966 168.745 903.476 164.031C908.19 159.316 914.852 156.959 923.461 156.959C932.07 156.959 938.63 159.316 943.139 164.031C947.649 168.745 949.903 175.509 949.903 184.323V196.93H946.829C948.878 184.631 954.105 174.894 962.51 167.72C971.119 160.546 981.777 156.754 994.486 156.344C1000.43 156.139 1004.84 157.676 1007.71 160.956C1010.78 164.031 1012.42 169.872 1012.63 178.482C1012.63 185.861 1011.09 191.703 1008.01 196.007C1004.94 200.312 999.098 202.874 990.489 203.694L983.417 204.309C972.553 205.334 964.662 208.408 959.742 213.533C954.823 218.452 952.363 225.832 952.363 235.671V286.095C952.363 295.114 950.006 301.981 945.291 306.695C940.577 311.41 933.71 313.767 924.691 313.767Z" fill="white"/>
</svg>
