<svg width="1373" height="390" viewBox="0 0 1373 390" fill="none" xmlns="http://www.w3.org/2000/svg">
<path d="M48.6182 313.767C40.4191 313.767 34.0648 311.512 29.5553 307.003C25.2507 302.493 23.0984 296.139 23.0984 287.94V117.296C23.0984 108.891 25.4557 102.537 30.1702 98.2326C34.8847 93.7231 41.5465 91.4683 50.1556 91.4683C57.3298 91.4683 62.9667 92.9032 67.0663 95.7729C71.3708 98.4376 75.2654 102.947 78.75 109.301L144.856 227.984H134.094L199.892 109.301C203.582 102.947 207.476 98.4376 211.576 95.7729C215.88 92.9032 221.62 91.4683 228.794 91.4683C236.993 91.4683 243.245 93.7231 247.55 98.2326C252.059 102.537 254.314 108.891 254.314 117.296V287.94C254.314 296.139 252.162 302.493 247.857 307.003C243.553 311.512 237.198 313.767 228.794 313.767C220.595 313.767 214.241 311.512 209.731 307.003C205.427 302.493 203.274 296.139 203.274 287.94V182.171H209.731L160.229 268.262C157.359 272.772 154.285 276.154 151.005 278.408C147.93 280.663 143.728 281.791 138.399 281.791C133.274 281.791 129.072 280.663 125.793 278.408C122.513 276.154 119.541 272.772 116.876 268.262L67.0663 181.864H74.138V287.94C74.138 296.139 71.9858 302.493 67.6812 307.003C63.3767 311.512 57.0223 313.767 48.6182 313.767ZM343.107 314.382C331.423 314.382 321.072 312.23 312.053 307.925C303.239 303.621 296.27 297.779 291.145 290.4C286.226 282.815 283.766 274.206 283.766 264.572C283.766 253.504 286.636 244.792 292.375 238.438C298.114 232.083 307.338 227.574 320.047 224.909C332.756 222.039 349.666 220.605 370.779 220.605H387.69V246.432H370.779C362.785 246.432 356.123 247.047 350.794 248.277C345.669 249.302 341.877 251.044 339.417 253.504C336.958 255.758 335.728 258.731 335.728 262.42C335.728 267.135 337.368 271.029 340.647 274.104C344.132 277.179 349.051 278.716 355.406 278.716C360.53 278.716 365.04 277.589 368.934 275.334C373.034 273.079 376.314 270.004 378.773 266.11C381.233 262.01 382.463 257.296 382.463 251.966V216.3C382.463 208.921 380.516 203.694 376.621 200.619C372.931 197.545 366.475 196.007 357.251 196.007C352.331 196.007 346.797 196.622 340.647 197.852C334.498 198.877 327.631 200.824 320.047 203.694C314.513 205.744 309.798 206.051 305.904 204.616C302.009 203.181 298.934 200.722 296.679 197.237C294.63 193.752 293.605 189.96 293.605 185.861C293.81 181.761 295.142 177.867 297.602 174.177C300.267 170.487 304.264 167.618 309.593 165.568C319.432 161.878 328.451 159.419 336.65 158.189C345.054 156.959 352.741 156.344 359.71 156.344C376.519 156.344 390.355 158.804 401.218 163.723C412.287 168.438 420.486 175.817 425.816 185.861C431.35 195.7 434.117 208.408 434.117 223.987V286.095C434.117 295.114 431.965 301.981 427.661 306.695C423.356 311.41 417.104 313.767 408.905 313.767C400.501 313.767 394.044 311.41 389.535 306.695C385.23 301.981 383.078 295.114 383.078 286.095V278.101L384.923 282.406C383.898 288.965 381.54 294.602 377.851 299.316C374.161 304.031 369.344 307.72 363.4 310.385C357.456 313.05 350.691 314.382 343.107 314.382ZM507.749 369.111C501.394 369.111 496.27 367.471 492.375 364.192C488.481 360.912 486.021 356.608 484.996 351.278C484.176 345.949 485.099 340.312 487.763 334.368L508.364 289.785V311.922L455.787 191.703C453.122 185.553 452.2 179.814 453.019 174.485C454.044 169.155 456.812 164.953 461.321 161.878C465.831 158.599 471.98 156.959 479.769 156.959C486.328 156.959 491.555 158.496 495.45 161.571C499.549 164.441 503.239 170.18 506.519 178.789L537.265 258.731H526.812L559.403 178.482C562.683 170.077 566.372 164.441 570.472 161.571C574.776 158.496 580.516 156.959 587.69 156.959C593.839 156.959 598.759 158.599 602.449 161.878C606.138 164.953 608.393 169.155 609.213 174.485C610.033 179.814 609.11 185.553 606.446 191.703L536.651 348.511C532.961 356.71 528.861 362.142 524.352 364.807C520.047 367.676 514.513 369.111 507.749 369.111ZM663.332 311C653.698 311 646.319 308.54 641.194 303.621C636.275 298.496 633.815 291.22 633.815 281.791V123.445C633.815 114.016 636.275 106.842 641.194 101.922C646.319 96.7978 653.698 94.2355 663.332 94.2355H723.595C761.311 94.2355 790.418 103.665 810.916 122.523C831.619 141.381 841.97 168.028 841.97 202.464C841.97 219.682 839.306 235.056 833.976 248.584C828.647 261.908 820.96 273.284 810.916 282.713C800.872 291.937 788.471 299.009 773.713 303.928C759.159 308.643 742.453 311 723.595 311H663.332ZM690.389 265.187H719.906C730.77 265.187 740.096 263.855 747.885 261.19C755.88 258.526 762.439 254.631 767.563 249.507C772.893 244.382 776.787 237.925 779.247 230.136C781.912 222.347 783.244 213.123 783.244 202.464C783.244 181.146 778.017 165.465 767.563 155.422C757.109 145.173 741.224 140.048 719.906 140.048H690.389V265.187ZM948.395 314.382C931.587 314.382 916.931 311.205 904.427 304.851C891.923 298.496 882.187 289.375 875.218 277.486C868.248 265.597 864.764 251.556 864.764 235.363C864.764 223.064 866.711 212.098 870.606 202.464C874.5 192.625 880.137 184.323 887.516 177.559C894.896 170.59 903.71 165.363 913.959 161.878C924.207 158.189 935.686 156.344 948.395 156.344C965.203 156.344 979.859 159.521 992.363 165.875C1004.87 172.23 1014.5 181.351 1021.26 193.24C1028.23 204.924 1031.72 218.965 1031.72 235.363C1031.72 247.457 1029.77 258.423 1025.88 268.262C1021.98 278.101 1016.35 286.505 1008.97 293.474C1001.79 300.239 992.978 305.466 982.524 309.155C972.275 312.64 960.899 314.382 948.395 314.382ZM948.395 274.104C953.929 274.104 958.849 272.772 963.153 270.107C967.458 267.237 970.738 263.035 972.992 257.501C975.452 251.761 976.682 244.382 976.682 235.363C976.682 221.629 974.017 211.791 968.688 205.846C963.358 199.697 956.594 196.622 948.395 196.622C942.86 196.622 937.941 197.955 933.636 200.619C929.332 203.284 925.95 207.486 923.49 213.225C921.03 218.76 919.8 226.139 919.8 235.363C919.8 248.892 922.465 258.731 927.795 264.88C933.124 271.029 939.991 274.104 948.395 274.104ZM1119.92 313.767C1112.75 313.767 1106.6 312.025 1101.47 308.54C1096.55 304.851 1092.45 299.419 1089.17 292.244L1045.21 191.703C1042.75 185.553 1041.93 179.814 1042.75 174.485C1043.57 169.155 1046.13 164.953 1050.43 161.878C1054.94 158.599 1061.09 156.959 1068.88 156.959C1075.44 156.959 1080.67 158.496 1084.56 161.571C1088.66 164.441 1092.35 170.18 1095.63 178.789L1126.69 258.731H1116.23L1148.82 178.482C1152.1 170.077 1155.79 164.441 1159.89 161.571C1163.99 158.496 1169.63 156.959 1176.8 156.959C1182.95 156.959 1187.87 158.599 1191.56 161.878C1195.46 164.953 1197.81 169.155 1198.63 174.485C1199.45 179.814 1198.43 185.553 1195.56 191.703L1150.67 292.552C1147.59 299.726 1143.49 305.056 1138.37 308.54C1133.45 312.025 1127.3 313.767 1119.92 313.767ZM1298.04 314.382C1279.59 314.382 1263.6 311.205 1250.07 304.851C1236.75 298.291 1226.5 289.067 1219.32 277.179C1212.15 265.29 1208.56 251.249 1208.56 235.056C1208.56 219.477 1211.94 205.846 1218.71 194.162C1225.68 182.274 1235.11 173.05 1247 166.49C1259.09 159.726 1272.82 156.344 1288.2 156.344C1299.47 156.344 1309.72 158.189 1318.94 161.878C1328.17 165.363 1336.06 170.59 1342.62 177.559C1349.18 184.323 1354.1 192.523 1357.38 202.157C1360.86 211.791 1362.6 222.552 1362.6 234.441C1362.6 238.54 1361.48 241.615 1359.22 243.665C1356.97 245.509 1353.38 246.432 1348.46 246.432H1254.38V220.605H1322.63L1317.71 224.602C1317.71 217.017 1316.69 210.868 1314.64 206.154C1312.59 201.439 1309.51 197.852 1305.42 195.392C1301.52 192.933 1296.6 191.703 1290.66 191.703C1284.3 191.703 1278.77 193.24 1274.05 196.315C1269.54 199.184 1266.06 203.489 1263.6 209.228C1261.14 214.968 1259.91 222.142 1259.91 230.751V233.518C1259.91 248.072 1263.09 258.526 1269.44 264.88C1276 271.029 1286.04 274.104 1299.57 274.104C1304.08 274.104 1309.21 273.591 1314.95 272.567C1320.89 271.337 1326.53 269.697 1331.86 267.647C1337.19 265.597 1341.8 265.29 1345.69 266.725C1349.59 267.955 1352.56 270.209 1354.61 273.489C1356.86 276.564 1358.09 280.151 1358.3 284.25C1358.5 288.145 1357.58 292.04 1355.53 295.934C1353.48 299.624 1350.1 302.493 1345.39 304.543C1338.21 307.823 1330.52 310.283 1322.33 311.922C1314.33 313.562 1306.23 314.382 1298.04 314.382Z" fill="#687269"/>
</svg>
