<svg width="3496" height="549" viewBox="0 0 3496 549" fill="none" xmlns="http://www.w3.org/2000/svg">
<path fill-rule="evenodd" clip-rule="evenodd" d="M138.466 85.3546C131.095 80.3226 125.145 73.3295 123.375 64.1811C118.276 37.8219 156.13 33.7766 166.695 44.9389C177.26 56.1011 185.293 89.4442 176.784 94.2253C173.391 96.1321 165.021 95.9319 155.86 93.3302L170.129 126.761L140.861 134.605L138.466 85.3546Z" fill="#784931"/>
<path fill-rule="evenodd" clip-rule="evenodd" d="M151.324 33.8164C147.001 33.6794 141.085 34.8253 138.717 35.7571C139.223 32.0855 138.789 28.262 137.381 24.8034C136.012 21.4428 133.651 18.9018 131.37 16.1874C130.318 14.9363 129.18 13.7168 127.758 12.9255C126.309 12.1192 124.655 11.7738 123.034 11.832C121.375 11.8915 119.75 12.3593 118.272 13.1047C117.618 13.4345 117.081 13.9147 116.449 14.2711C115.801 14.6361 115.348 14.2951 114.728 13.9969C113.231 13.2782 111.31 13.2404 109.722 13.4682C107.94 13.7239 106.218 14.462 104.722 15.4658C103.267 16.4429 101.965 17.7447 101.154 19.3507C100.792 20.0656 100.5 20.8475 100.39 21.6537C100.345 21.9845 100.371 22.1662 100.101 22.3554C99.851 22.5305 99.5279 22.6202 99.2679 22.7927C96.7532 24.4609 94.9577 27.2102 94.3993 30.2721C94.0735 32.0584 94.4657 34.9446 95.4011 38.0467C96.3366 41.1488 101.373 48.5474 104.836 50.8104C107.927 52.8303 111.894 53.6468 115.474 53.51C113.914 56.6482 113.272 60.2191 113.034 63.7399C112.775 67.5644 113.009 71.4033 113.729 75.1858C114.413 78.7795 115.387 82.5127 117.145 85.7382C118.789 88.7544 121.165 90.9534 124.398 91.886C125.879 92.3132 127.406 92.5232 128.927 92.6813C130.426 92.8372 131.926 92.9775 133.429 92.8877C136.272 92.7175 139.353 91.7902 140.86 89.1068C141.403 88.1395 141.968 86.9554 142.263 85.8723C142.369 85.4829 142.429 85.2308 142.102 84.9655C141.71 84.6477 141.167 84.4694 140.718 84.2593C138.153 83.0614 136.228 81.0605 135.154 78.3575C134.064 75.615 133.852 71.7548 136.298 69.7749C139.318 67.3309 143.562 68.0699 147.046 68.8854C147.128 64.0082 148.694 59.2166 152.306 56.0214C156.302 52.4866 161.522 50.7993 165.733 47.5567C166.83 46.7117 167.932 45.7912 168.56 44.5002C168.823 43.9607 169.117 43.2734 169.113 42.6539C169.109 41.84 168.443 41.335 167.902 40.8446C165.034 38.2444 155.647 33.9535 151.324 33.8164Z" fill="#191847"/>
<path fill-rule="evenodd" clip-rule="evenodd" d="M147.537 236.527L193.309 396.545L226.705 514.487H251.062L215.574 236.527H147.537Z" fill="#191847"/>
<path fill-rule="evenodd" clip-rule="evenodd" d="M135.296 236.527C134.238 319.002 130.628 363.987 129.516 371.48C128.404 378.973 111.597 426.642 79.0927 514.487H104.325C145.705 430.215 168.805 382.546 173.623 371.48C178.442 360.414 193.313 315.43 215.712 236.527H135.296Z" fill="#2F3676"/>
<path fill-rule="evenodd" clip-rule="evenodd" d="M76.8374 537.321L78.0999 510.806H104.612C117.184 519.645 133.596 526.799 153.85 532.271V537.321H105.875L89.4624 534.796V537.321H76.8374Z" fill="#191847"/>
<path fill-rule="evenodd" clip-rule="evenodd" d="M223.287 537.321L224.549 510.806H251.062C263.633 519.645 280.046 526.799 300.299 532.271V537.321H252.324L235.912 534.796V537.321H223.287Z" fill="#191847"/>
<path fill-rule="evenodd" clip-rule="evenodd" d="M250.446 203.193L293.56 228.238C304.728 230.01 314.183 232.682 321.925 236.255C323.81 237.635 326.222 240.577 319.025 240.783C311.829 240.99 304.268 241.529 303.536 244.057C302.805 246.584 307.429 249.027 305.78 252.507C304.681 254.827 297.837 250.022 285.247 238.093L243.874 225.908L250.446 203.193ZM78.0786 219.463L100.661 218.762C86.0209 273.968 78.1068 303.194 76.9189 306.44C74.2461 313.746 80.7989 324.493 83.6423 330.292C75.1694 334.431 75.6005 320.206 64.9188 325.619C55.169 330.559 47.9173 339.14 36.2309 332.518C34.7941 331.704 33.1407 328.505 36.7795 325.829C45.8451 319.163 58.8421 307.599 60.5246 303.885C62.819 298.82 68.6703 270.679 78.0786 219.463Z" fill="#B28B67"/>
<path fill-rule="evenodd" clip-rule="evenodd" d="M154.367 113.894L167.221 106.997C193.843 149.747 229.299 189.401 282.052 218.873L274.099 240.466C229.373 223.853 187.747 212.161 165.889 179.251C158.554 168.205 156.463 128.278 154.367 113.894Z" fill="#C5CFD6"/>
<path fill-rule="evenodd" clip-rule="evenodd" d="M130.332 251.663C170.148 248.894 200.914 243.468 222.633 235.385C225.323 234.384 224.945 229.673 223.101 226.756C194.386 181.33 173.082 141.031 167.085 107.02C163.726 109.518 157.326 110.932 147.885 111.263C129.305 150.679 125.014 192.903 130.332 251.663Z" fill="#323337"/>
<path fill-rule="evenodd" clip-rule="evenodd" d="M141.214 109.41L151.532 107.59C156.414 121.228 197.562 310.309 231.937 368.473L105.359 390.795C98.0428 333.249 107.605 260.885 119.421 199.658C103.144 220.736 91.5186 253.636 84.545 298.358L59.7676 296.483C64.0691 217.78 90.5184 155.826 139.115 110.621C139.186 110.327 139.256 110.034 139.326 109.743L140.24 109.582C140.538 109.308 140.837 109.035 141.137 108.762L141.214 109.41Z" fill="#DDE3E9"/>
<path fill-rule="evenodd" clip-rule="evenodd" d="M1995.03 206.883C2000.4 200.579 2004.03 192.853 2003.43 184.195C2001.68 159.251 1966.96 164.738 1960.2 177.328C1953.45 189.918 1954.25 221.853 1962.98 224.103C1966.46 225.001 1973.88 222.802 1981.42 218.253L1976.69 251.771H2004.66L1995.03 206.883Z" fill="#915B3C"/>
<path fill-rule="evenodd" clip-rule="evenodd" d="M1997.18 212.499C2000.69 196.878 2010.69 186.23 2009.16 179.249C2008.14 174.594 2005.43 171.7 2001.02 170.566C1998.74 161.338 1991.38 157.413 1978.95 158.791C1960.31 160.858 1948.92 168.602 1953.84 185.643C1958.36 185.643 1963.81 184.009 1971.35 186.809C1973.75 187.697 1975.46 190.452 1976.49 195.073H1979.9C1983.2 189.589 1986.47 187.574 1989.68 189.028C1992.9 190.481 1993.63 194.012 1991.87 199.62L1993.55 212.499H1997.18Z" fill="#191847"/>
<path fill-rule="evenodd" clip-rule="evenodd" d="M2082.75 397.471H1948.71C1938.42 397.471 1930.07 405.821 1930.07 416.121V523.357C1930.07 533.657 1938.42 542.006 1948.71 542.006H2082.75C2093.05 542.006 2101.39 533.657 2101.39 523.357V416.121C2101.39 405.821 2093.05 397.471 2082.75 397.471ZM2064.1 430.108C2066.67 430.108 2068.76 432.196 2068.76 434.771V504.707C2068.76 507.282 2066.67 509.37 2064.1 509.37H1967.36C1964.79 509.37 1962.7 507.282 1962.7 504.707V434.771C1962.7 432.196 1964.79 430.108 1967.36 430.108H2064.1Z" fill="#C5CFD6"/>
<path fill-rule="evenodd" clip-rule="evenodd" d="M1814.5 536.178C1837.48 508.116 1853.02 487.311 1861.14 473.765C1875.04 450.57 1886.41 429.931 1890 422.047C1898.56 403.247 1870.3 394.444 1863.9 403.213C1854.22 416.485 1833.54 458.25 1801.86 528.506L1814.5 536.178Z" fill="#B28B67"/>
<path fill-rule="evenodd" clip-rule="evenodd" d="M1861.58 528.019L1904.35 420.36C1913.5 400.735 1869.33 387.834 1862.6 396.968C1847.34 417.703 1811.07 499.502 1806.52 505.679L1861.58 528.019Z" fill="#2F3676"/>
<path fill-rule="evenodd" clip-rule="evenodd" d="M1975.48 506.428C1967.15 494.276 1936.85 453.39 1920.35 436.474C1915.6 431.613 1910.98 426.947 1906.6 422.599C1893.59 409.675 1867.68 431.398 1880.67 443.169C1913.01 472.484 1960.19 512.058 1964.14 515.587C1969.66 520.532 1980.72 514.066 1975.48 506.428Z" fill="#915B3C"/>
<path fill-rule="evenodd" clip-rule="evenodd" d="M1973.53 500.939C1976.4 503.301 1978.27 505.231 1979.13 506.728C1980.19 508.548 1981.42 511.379 1982.82 515.222C1980.71 516.441 1961.74 527.398 1925.9 548.093C1921.59 544.056 1920.92 540.923 1923.88 538.692C1926.85 536.462 1929.29 534.581 1931.22 533.049L1950.87 505.974C1951.25 505.453 1951.97 505.337 1952.5 505.715C1952.5 505.722 1952.51 505.728 1952.52 505.735L1956.61 508.879C1960.35 508.552 1963.15 507.856 1964.99 506.791C1966.49 505.925 1968.21 504.125 1970.15 501.389C1970.9 500.339 1972.35 500.092 1973.4 500.838C1973.45 500.87 1973.49 500.904 1973.53 500.939Z" fill="#E4E4E4"/>
<path fill-rule="evenodd" clip-rule="evenodd" d="M1824.38 531.984C1825.68 535.466 1826.34 538.07 1826.34 539.798C1826.34 541.9 1825.99 544.968 1825.29 549C1822.85 549 1800.94 549 1759.55 549C1757.84 543.352 1758.83 540.303 1762.51 539.853C1766.19 539.402 1769.25 538.996 1771.68 538.633L1802.23 525.011C1802.82 524.748 1803.51 525.013 1803.77 525.601C1803.78 525.611 1803.78 525.621 1803.79 525.631L1805.75 530.395C1809.16 531.985 1811.93 532.78 1814.06 532.78C1815.79 532.78 1818.18 532.081 1821.23 530.683C1822.4 530.147 1823.78 530.66 1824.32 531.831C1824.34 531.881 1824.36 531.932 1824.38 531.984Z" fill="#E4E4E4"/>
<path fill-rule="evenodd" clip-rule="evenodd" d="M1919.74 425.737C1955.28 419.946 1979.09 415.986 1991.16 413.858C2025.57 407.79 2035.6 389.272 2029.67 348.868H1966.27C1957.88 351.291 1922.83 366.277 1861.11 393.825C1850 399.338 1852.07 415.594 1854.1 420.949C1854.18 421.168 1872.9 453.249 1910.26 517.194L1962.12 484.152L1919.64 429.631C1918.52 427.371 1918.55 426.073 1919.74 425.737Z" fill="#5C63AB"/>
<path fill-rule="evenodd" clip-rule="evenodd" d="M1915.17 333.61L1877.99 360.912C1867.91 363.633 1859.48 367.019 1852.72 371.069C1851.12 372.525 1849.19 375.474 1855.82 374.965C1862.45 374.455 1869.44 374.217 1870.35 376.478C1871.27 378.738 1867.26 381.442 1869.11 384.492C1870.34 386.526 1876.16 381.427 1886.57 369.195L1923.39 353.927L1915.17 333.61ZM2057.91 334.552L2033.56 334.648C2048.59 383.199 2056.71 408.961 2057.91 411.931C2060.61 418.616 2054.9 428.796 2052.46 434.266C2060.41 437.823 2059.56 424.65 2069.59 429.315C2078.74 433.573 2085.7 441.289 2096.28 434.764C2097.58 433.962 2099 430.941 2095.56 428.581C2086.99 422.7 2074.63 412.408 2072.96 409.02C2070.68 404.401 2065.67 379.578 2057.91 334.552Z" fill="#915B3C"/>
<path fill-rule="evenodd" clip-rule="evenodd" d="M1988.7 232.342L1978.62 230.614C1941.23 262.919 1925.87 324.981 1880.03 357.858L1891.06 371.534C1970.58 361.688 1990.29 285.987 1988.7 232.342Z" fill="#E87613"/>
<path fill-rule="evenodd" clip-rule="evenodd" d="M2032.63 359.006C1992.22 359.006 1962.5 359.006 1943.46 359.006C1939.38 359.006 1940.15 353.122 1940.74 350.153C1947.54 315.883 1974.07 278.943 1974.07 230.161L1999.8 226.127C2021.07 260.348 2028.43 302.48 2032.63 359.006Z" fill="#DDE3E9"/>
<path fill-rule="evenodd" clip-rule="evenodd" d="M2031.91 259.764C2035.65 258.69 2038.61 256.186 2040.79 252.25C2050.19 235.284 2046.79 225.944 2036.75 222.873C2026.7 219.803 2017.74 226.127 2001.73 226.127C2000.86 226.127 2000.06 226.182 1999.34 226.291L1991.29 226.751C1968.18 305.057 1961.81 357.301 1972.17 383.484H2042.36C2046.52 393.182 2050.5 401.341 2054.3 407.962H2073.42C2075.22 349.76 2061.39 300.361 2031.91 259.764Z" fill="#FF9B21"/>
<path fill-rule="evenodd" clip-rule="evenodd" d="M2027.08 343.268C2024.87 361.739 2021.28 375.144 2016.31 383.484H2042.36C2037.51 372.172 2032.41 358.767 2027.08 343.268Z" fill="black" fill-opacity="0.1"/>
<path fill-rule="evenodd" clip-rule="evenodd" d="M2801.18 110.773C2795.58 104.198 2791.79 96.1403 2792.42 87.1114C2794.25 61.0969 2830.46 66.8198 2837.5 79.9497C2844.54 93.0796 2843.71 126.385 2834.6 128.731C2830.97 129.667 2823.24 127.375 2815.37 122.63L2820.31 157.586H2791.14L2801.18 110.773Z" fill="#57331F"/>
<path fill-rule="evenodd" clip-rule="evenodd" d="M2816.83 89.9845C2817.94 105.541 2820.9 113.319 2825.69 113.319C2832.88 113.319 2838.97 108.756 2842.13 108.756C2844.43 108.756 2843.91 111.633 2842.39 113.766C2841.13 115.526 2835.01 117.222 2835.01 119.951C2835.01 122.679 2839.85 120.568 2839.85 122.186C2839.85 124.863 2840.7 129.895 2836.05 129.895C2831.35 129.895 2817.87 128.182 2815.56 121.204C2814.07 116.701 2813.11 107.37 2812.67 93.2099C2812.39 93.176 2812.09 93.1586 2811.8 93.1586C2807.77 93.1586 2804.51 96.424 2804.51 100.452C2804.51 102.497 2805.35 104.345 2806.7 105.67C2805.02 108.052 2803.13 110.54 2800.96 113.108C2792.82 108.223 2786.78 93.9231 2794.74 80.186C2796.94 73.4564 2801.92 69.8618 2807.8 68.1927C2812.56 66.1994 2817.51 65.9747 2821.69 67.1696C2829.87 67.8718 2837.18 70.3678 2839.25 71.8502C2839.25 79.5999 2837.75 81.8993 2824.92 81.6966C2821.77 83.361 2819.35 86.227 2816.83 89.9845Z" fill="#191847"/>
<path fill-rule="evenodd" clip-rule="evenodd" d="M2788.8 258.18L2848.46 409.191L2888.47 536.858H2904.27L2843.1 258.18L2788.8 258.18Z" fill="#3D2216"/>
<path fill-rule="evenodd" clip-rule="evenodd" d="M2776.78 258.18C2776.15 311.246 2766.88 382.691 2765.4 385.999C2764.42 388.204 2730.35 416.248 2663.21 470.13L2674.09 481.777C2753.31 435.58 2794.76 409.4 2798.42 403.239C2803.92 393.997 2821.83 308.948 2836.2 258.18H2776.78Z" fill="#57331F"/>
<path fill-rule="evenodd" clip-rule="evenodd" d="M2661.75 466.242C2658.1 467.534 2655.58 468.759 2654.2 469.918C2652.52 471.327 2650.3 473.663 2647.55 476.926C2649.19 478.874 2663.88 496.381 2691.62 529.447C2697.28 527.026 2699.05 524.194 2696.94 520.951C2694.84 517.709 2693.11 514.994 2691.77 512.805L2682.17 479.262C2681.98 478.616 2681.31 478.243 2680.67 478.428C2680.65 478.431 2680.64 478.434 2680.63 478.438L2675.51 480.063C2671.96 478.406 2669.46 476.727 2668.04 475.025C2666.88 473.642 2665.83 471.264 2664.91 467.89C2664.55 466.595 2663.21 465.834 2661.92 466.19C2661.86 466.206 2661.81 466.223 2661.75 466.242Z" fill="#E4E4E4"/>
<path fill-rule="evenodd" clip-rule="evenodd" d="M2882 530.964C2880.64 534.594 2879.96 537.311 2879.96 539.113C2879.96 541.305 2880.32 544.504 2881.05 548.71C2883.6 548.71 2906.45 548.71 2949.61 548.71C2951.39 542.819 2950.36 539.639 2946.53 539.17C2942.69 538.7 2939.5 538.276 2936.96 537.898L2905.1 523.691C2904.48 523.418 2903.76 523.693 2903.49 524.306C2903.49 524.317 2903.48 524.327 2903.48 524.338L2901.43 529.307C2897.88 530.965 2894.99 531.794 2892.77 531.794C2890.96 531.794 2888.47 531.065 2885.29 529.607C2884.07 529.047 2882.62 529.583 2882.07 530.804C2882.04 530.856 2882.02 530.91 2882 530.964Z" fill="#E4E4E4"/>
<path fill-rule="evenodd" clip-rule="evenodd" d="M2828.91 523.708L2904.03 515.554L2848.36 258.18H2781.07L2828.91 523.708Z" fill="#69A1AC"/>
<path fill-rule="evenodd" clip-rule="evenodd" d="M2678.75 451.34L2728.02 509.672C2779.92 452.981 2810.18 415.99 2818.8 398.699C2827.41 381.408 2835.16 334.569 2842.03 258.18H2766.28C2762.53 325.383 2760 360.549 2758.69 363.676C2757.38 366.803 2730.73 396.025 2678.75 451.34Z" fill="#89C5CC"/>
<path fill-rule="evenodd" clip-rule="evenodd" d="M2895.12 243.106L2929.55 276.699C2939.57 280.973 2947.78 285.692 2954.18 290.856C2955.62 292.592 2957.18 295.919 2950.41 294.43C2943.64 292.942 2936.45 291.681 2935.18 293.883C2933.91 296.085 2937.66 299.459 2935.31 302.341C2933.74 304.262 2928.47 298.151 2919.49 284.007L2883.68 262.896L2895.12 243.106ZM2726.75 212.703L2753.36 212.803C2733.09 278.486 2722.33 312.877 2721.08 315.975C2718.27 322.946 2724.22 333.563 2726.76 339.268C2718.47 342.978 2719.36 329.239 2708.9 334.105C2699.36 338.546 2692.09 346.593 2681.07 339.788C2679.71 338.951 2678.23 335.801 2681.81 333.339C2690.76 327.206 2703.65 316.473 2705.39 312.94C2707.76 308.122 2714.88 274.709 2726.75 212.703Z" fill="#57331F"/>
<path fill-rule="evenodd" clip-rule="evenodd" d="M2807.85 137.192L2818.36 135.389C2834.92 193.923 2919.99 233.822 2925.21 255.703C2927.13 263.727 2921.35 267.784 2924.33 270.228L2910.67 280.23C2908.36 277.53 2903.42 282.468 2893.11 279.014C2882.8 275.56 2807.85 206.501 2807.85 137.192Z" fill="#191847"/>
<path fill-rule="evenodd" clip-rule="evenodd" d="M2825.53 144.974C2824.32 222.468 2869.11 242.236 2859.13 273.323C2850.9 298.995 2772.03 326.591 2758.39 301.427C2752.86 291.241 2750.36 278.922 2750.07 265.528C2746.58 275.818 2743.82 284.676 2741.8 292.103C2738.29 304.916 2724.72 306.952 2724.72 311.888L2706.84 306.952C2708.06 300.247 2699.63 296.982 2701.89 282.001C2712.01 214.878 2739.22 166.223 2783.51 136.036L2783.97 129.483C2784.15 126.804 2786.48 124.784 2789.16 124.972L2821.89 127.261C2824.57 127.448 2826.59 129.772 2826.41 132.451L2825.53 144.974Z" fill="#2F3676"/>
<path fill-rule="evenodd" clip-rule="evenodd" d="M2354.41 111.111C2348.05 105.267 2343.3 97.732 2342.83 88.6934C2341.47 62.6506 2378.11 63.9168 2386.7 76.0901C2395.29 88.2634 2398.52 121.422 2389.77 124.861C2386.28 126.232 2378.33 124.9 2369.94 121.15L2379.1 155.242L2350.14 158.798L2354.41 111.111Z" fill="#915B3C"/>
<path fill-rule="evenodd" clip-rule="evenodd" d="M2368.36 63.0963C2364.46 62.9391 2354.13 63.7706 2352.24 64.0036C2351.03 64.1523 2349.75 64.5901 2348.9 63.5662C2348.2 62.7278 2348.22 61.1613 2347.92 60.1262C2347.56 58.9236 2347.13 57.7474 2346.69 56.5747C2345.43 53.2377 2343.77 50.1202 2341.63 47.2644C2337.62 41.9066 2332.23 37.9864 2325.8 36.1097C2318.69 34.0377 2310.98 34.3111 2303.79 35.7906C2296.1 37.3738 2289.39 40.8011 2282.35 44.1144C2275.65 47.2717 2268.44 49.0755 2260.99 48.8502C2253.49 48.6233 2247.44 45.3154 2240.76 42.29C2233.93 39.1926 2226.35 37.5485 2218.9 39.0546C2211.95 40.4607 2205.84 44.1521 2200.52 48.735C2195.53 53.0228 2191.59 57.9296 2189.81 64.3719C2187.9 71.3019 2188.79 78.5418 2193.98 83.8217C2201.5 91.475 2213.81 92.1818 2223.8 90.7347C2229.57 89.898 2235.13 88.1419 2240.37 85.5466C2247.35 82.0853 2253.11 76.9629 2259.5 72.5968C2262.5 70.548 2265.65 68.7818 2269 67.3763C2272.25 66.012 2275.51 65.1686 2278.81 66.8282C2282.29 68.5839 2285.44 70.3427 2289.3 71.2367C2293 72.0943 2296.83 72.3568 2300.6 71.8646C2307.93 70.907 2314.88 67.7331 2321.82 65.327C2327.47 63.3651 2333.54 61.3575 2339.61 61.8301C2342.14 62.0274 2345.88 62.618 2347.09 65.0773C2332.4 69.6458 2328.78 88.9542 2334.69 102.076C2337.88 109.159 2352.68 116.079 2357.54 111.551C2360.63 108.683 2358.18 105.716 2356.59 103.754C2353.54 99.997 2352.03 94.8758 2356.39 91.4634C2360.16 88.5202 2365.14 93.799 2365.22 93.7827C2366.33 93.5574 2375.32 86.9112 2380.99 78.1259C2387.6 77.7091 2388.06 73.2596 2386.06 69.9131C2384.06 66.5667 2373.73 63.3141 2368.36 63.0963Z" fill="#191847"/>
<path fill-rule="evenodd" clip-rule="evenodd" d="M2360.06 258.186L2404.58 411.628L2425.52 526.834H2446.54L2425.56 258.186H2360.06Z" fill="#784931"/>
<path fill-rule="evenodd" clip-rule="evenodd" d="M2340.05 258.186C2343.16 337.898 2341.93 381.375 2341.23 388.617C2340.54 395.86 2336.59 444.363 2309.69 529.265H2331.55C2367.18 447.816 2379.61 399.313 2383.7 388.617C2387.79 377.922 2399.85 334.445 2417.47 258.186H2340.05Z" fill="#915B3C"/>
<path fill-rule="evenodd" clip-rule="evenodd" d="M2359.1 258.186C2370.68 310.985 2390.72 395.267 2419.2 511.031H2449.94C2452.21 392.211 2442.55 314.007 2425.82 258.186H2359.1Z" fill="#69A1AC"/>
<path fill-rule="evenodd" clip-rule="evenodd" d="M2339.89 258.186C2342.94 337.898 2335.05 416.43 2310.62 512.272H2343.43C2379.12 432.039 2404.69 353.894 2422.18 258.186H2339.89Z" fill="#C5CFD6"/>
<path fill-rule="evenodd" clip-rule="evenodd" d="M2306.58 545.068L2307.78 525.618C2314.85 527.684 2323.69 526.874 2334.32 523.187C2345.75 531.284 2360.14 536.813 2377.49 539.773C2378.81 539.999 2379.7 541.255 2379.47 542.579C2379.46 542.664 2379.44 542.749 2379.41 542.833L2377.75 548.715H2334.32H2308.99L2306.58 545.068Z" fill="#191847"/>
<path fill-rule="evenodd" clip-rule="evenodd" d="M2420.83 545.068L2422.04 525.618C2429.1 527.684 2437.95 526.874 2448.58 523.187C2460.01 531.284 2474.39 536.813 2491.74 539.773C2493.06 539.999 2493.95 541.255 2493.73 542.579C2493.71 542.664 2493.7 542.749 2493.67 542.833L2492 548.715H2448.58H2423.25L2420.83 545.068Z" fill="#191847"/>
<path fill-rule="evenodd" clip-rule="evenodd" d="M2460.44 230.591L2503.56 251.897C2514.41 252.866 2523.68 254.817 2531.36 257.751C2533.26 258.957 2535.78 261.636 2528.88 262.313C2521.98 262.99 2514.76 264.012 2514.23 266.5C2513.7 268.987 2518.31 271.038 2516.96 274.505C2516.06 276.817 2509.16 272.635 2496.25 261.958L2455.67 252.946L2460.44 230.591ZM2314 257.412L2339.03 253.099C2332.38 305.687 2328.71 333.615 2328.01 336.883C2326.45 344.236 2334.16 353.658 2337.66 358.834C2330.14 363.927 2328.62 350.244 2319.17 356.852C2310.54 362.883 2304.78 372.068 2292.74 367.282C2291.26 366.694 2289.25 363.85 2292.36 360.802C2300.1 353.209 2310.93 340.401 2312.03 336.619C2313.53 331.462 2314.19 305.06 2314 257.412Z" fill="#915B3C"/>
<path fill-rule="evenodd" clip-rule="evenodd" d="M2366.58 139.902L2376.62 136.301C2420.87 162.706 2447.89 223.665 2500.91 249.129L2492.06 265.173C2408.61 269.463 2374.66 195.284 2366.58 139.902Z" fill="#1F28CF"/>
<path fill-rule="evenodd" clip-rule="evenodd" d="M2344.39 277.947C2385.9 270.628 2416.43 265.244 2435.98 261.795C2440.17 261.057 2438.31 255.153 2437.17 252.21C2423.98 218.245 2390.04 185.112 2381.21 135.012L2354.06 135.528C2338.4 174.527 2338.47 219.131 2344.39 277.947Z" fill="#DDE3E9"/>
<path fill-rule="evenodd" clip-rule="evenodd" d="M2327.16 175.891C2323.13 175.465 2319.64 173.428 2316.69 169.781C2303.96 154.06 2305.75 143.852 2315.52 138.878C2325.28 133.905 2335.63 138.778 2352.07 135.878C2352.96 135.721 2353.79 135.632 2354.56 135.613L2362.91 134.627C2400.82 210.866 2416.82 263.369 2410.92 292.136L2338.83 304.849C2336.32 315.562 2333.71 324.663 2331.01 332.151L2311.36 335.615C2298.98 276.165 2304.24 222.924 2327.16 175.891Z" fill="#2B44FF"/>
<path fill-rule="evenodd" clip-rule="evenodd" d="M2347.25 260.777C2352.86 279.348 2358.97 292.466 2365.59 300.132L2338.84 304.849C2341.77 292.353 2344.57 277.662 2347.25 260.777Z" fill="black" fill-opacity="0.1"/>
<path fill-rule="evenodd" clip-rule="evenodd" d="M594.921 95.2778C591.212 87.4771 589.635 78.7128 592.583 70.1558C601.078 45.5006 634.575 60.4019 637.981 74.9076C641.387 89.4132 631.96 121.366 622.559 121.276C618.81 121.241 611.933 117.024 605.558 110.404L601.285 145.447L573.106 137.895L594.921 95.2778Z" fill="#D4A181"/>
<path fill-rule="evenodd" clip-rule="evenodd" d="M605.148 96.1245C599.856 101.896 593.67 105.652 588.842 104.358C579.672 101.9 576.436 87.8916 579.968 74.7085C580.092 74.2453 580.225 73.7877 580.365 73.3359C568.881 77.3935 557.889 88.5122 545.053 85.0724C527.591 80.3926 530.093 43.3094 554.491 49.8477C571.083 54.2943 578.597 58.9009 584.672 64.3634C587.107 60.824 590.104 58.1025 593.306 56.4993C594.116 55.9655 595.249 55.5509 596.647 55.2594C597.509 55.0493 598.378 54.9226 599.246 54.8848C603.905 54.4626 610.344 55.0096 617.272 56.6091C618.565 56.9078 619.828 57.2321 621.051 57.5776C622.804 51.1153 629.456 47.2851 635.928 49.0195C642.412 50.7572 646.26 57.4228 644.523 63.9074C642.843 70.1787 636.554 73.9842 630.277 72.6561C626.444 72.7998 621.681 72.383 616.546 71.3694C616.542 73.3425 616.248 75.5062 615.614 77.8707C615.055 79.9585 614.231 82.111 613.205 84.2455C612.459 82.6519 611.224 81.4113 609.739 81.0134C605.585 79.9003 601.779 82.5425 600.807 86.1705C599.573 90.7749 601.339 94.8182 605.148 96.1245Z" fill="#191847"/>
<path fill-rule="evenodd" clip-rule="evenodd" d="M537.164 245.358L581.688 398.8L602.63 514.006H623.65L602.668 245.358H537.164Z" fill="#BA8B72"/>
<path fill-rule="evenodd" clip-rule="evenodd" d="M517.154 245.358C520.261 325.07 519.035 368.547 518.34 375.789C517.645 383.032 513.697 431.535 486.798 516.437H508.66C544.284 434.988 556.72 386.485 560.805 375.789C564.891 365.094 576.958 321.617 594.576 245.358H517.154Z" fill="#D4A181"/>
<path fill-rule="evenodd" clip-rule="evenodd" d="M536.208 245.358C547.789 298.157 567.82 382.439 596.301 498.203H627.045C629.315 379.383 619.656 301.179 602.928 245.358H536.208Z" fill="#69A1AC"/>
<path fill-rule="evenodd" clip-rule="evenodd" d="M516.999 245.358C520.041 325.07 512.156 403.602 487.73 499.444H520.532C556.221 419.211 581.8 341.067 599.282 245.358H516.999Z" fill="#89C5CC"/>
<path fill-rule="evenodd" clip-rule="evenodd" d="M483.682 532.24L484.888 512.791C491.951 514.856 500.797 514.046 511.427 510.359C522.856 518.456 537.244 523.985 554.591 526.945C555.914 527.171 556.804 528.427 556.578 529.751C556.563 529.837 556.544 529.921 556.52 530.005L554.853 535.887H511.427H486.095L483.682 532.24Z" fill="#191847"/>
<path fill-rule="evenodd" clip-rule="evenodd" d="M597.938 532.24L599.145 512.791C606.207 514.856 615.053 514.046 625.683 510.359C637.112 518.456 651.5 523.985 668.847 526.945C670.17 527.171 671.06 528.427 670.834 529.751C670.82 529.837 670.8 529.921 670.777 530.005L669.109 535.887H625.683H600.351L597.938 532.24Z" fill="#191847"/>
<path fill-rule="evenodd" clip-rule="evenodd" d="M624.134 177.02L669.695 161.59C678.051 154.603 685.982 149.431 693.488 146.073C695.688 145.579 699.363 145.693 694.963 151.051C690.563 156.408 686.176 162.241 687.56 164.375C688.944 166.508 693.653 164.699 695.153 168.103C696.153 170.372 688.314 172.296 671.637 173.875L636.573 196.195L624.134 177.02ZM685.822 207.697L705.84 200.889C710.119 191.596 714.044 187.233 717.617 187.8C720.577 187.009 713.642 198.482 719.016 198.329C724.391 198.176 738.71 190.993 740.554 193.289C743.282 196.687 738.874 204.864 734.722 208.586C726.963 215.542 721.23 217.378 707.626 218.707C700.513 219.402 692.515 221.898 683.632 226.197L685.822 207.697Z" fill="#D4A181"/>
<path fill-rule="evenodd" clip-rule="evenodd" d="M604.793 168.383C619.373 170.795 639.322 171.144 662.346 161.651L667.281 181.221C650.498 192.878 628.362 200.983 610.888 197.393C597.118 194.564 592.996 176.577 604.793 168.383Z" fill="#2026A2"/>
<path fill-rule="evenodd" clip-rule="evenodd" d="M619.261 200.924C634.031 207.502 660.741 207.527 699.39 200.999C705.12 221.253 706.945 235.294 704.863 243.121C670.792 253.917 642.771 256.468 620.657 253.062C619.053 266.258 615.269 278.416 607.92 288.839C592.813 310.267 532.287 277.281 509.903 277.725C504.113 231.336 533.46 218.075 538.444 189.925C543.903 159.098 577.024 116.007 580.666 116.649L613.88 122.506C611.562 146.376 616.211 173.952 619.261 200.924Z" fill="#1F28CF"/>
<path fill-rule="evenodd" clip-rule="evenodd" d="M1531.78 106.496C1526.66 99.5462 1523.44 91.2438 1524.7 82.2812C1528.33 56.4576 1564.06 64.693 1570.17 78.2823C1576.28 91.8715 1573.12 125.037 1563.87 126.743C1560.19 127.423 1552.63 124.596 1545.11 119.314L1547.6 154.529L1518.5 152.494L1531.78 106.496Z" fill="#915B3C"/>
<path fill-rule="evenodd" clip-rule="evenodd" d="M1512.61 72.7555C1511.74 71.7582 1511.32 70.3927 1510.96 69.0992C1510.6 67.7555 1510.24 66.3992 1510.03 65.0127C1509.61 62.2425 1509.82 59.1054 1511.92 57.1236C1513.6 55.5344 1515.99 54.9364 1518.16 54.9219C1519.61 54.9122 1521.08 55.2173 1522.42 55.7675C1523.76 56.3133 1524.88 57.2929 1526.17 57.9424C1526.42 55.0067 1527.14 51.9665 1528.81 49.561C1530.41 47.2467 1532.79 46.0516 1535.42 45.8753C1538.12 45.6944 1540.72 46.5048 1543.02 47.9669C1543.6 48.333 1544.17 48.7142 1544.71 49.1384C1545.17 49.4936 1545.63 49.9159 1546.18 50.0858C1546.79 50.2755 1547.13 49.9376 1547.56 49.5118C1548.08 49.0126 1548.64 48.5811 1549.24 48.2049C1551.86 46.5421 1555.2 46.0159 1558.02 47.32C1559.32 47.9208 1560.55 48.8735 1561.38 50.1245C1562.11 51.2396 1562.57 52.9593 1563.63 53.7748C1564.08 54.121 1564.44 53.7295 1564.89 53.453C1565.57 53.0375 1566.23 52.5723 1566.91 52.1699C1567.87 51.6045 1568.9 51.2032 1569.98 51.0312C1571.57 50.7793 1573.72 51.0147 1574.02 53.089C1574.14 53.8681 1573.95 54.6799 1573.84 55.4493C1573.69 56.5058 1573.54 57.5618 1573.38 58.6155C1573.25 59.4155 1573.11 60.1868 1572.9 60.9666C1572.79 61.3823 1572.48 62.1501 1572.63 62.5847C1572.82 63.1279 1573.88 62.901 1574.33 62.9504C1575.2 63.0482 1576.08 63.2642 1576.86 63.6968C1577.47 64.0322 1578.11 64.5069 1578.32 65.2478C1578.45 65.7029 1578.38 66.1556 1578.27 66.6067C1578.14 67.148 1578.22 67.446 1578.25 68.0036C1579.48 67.5046 1583.66 66.4986 1584.03 68.6513C1584.15 69.3681 1583.7 70.1372 1583.36 70.7107C1582.77 71.7167 1582.02 72.6217 1581.25 73.4815C1579.66 75.2751 1577.8 76.7883 1575.83 78.0554C1577.96 79.1864 1578.33 82.1091 1576.31 83.6934C1575.41 84.3929 1574.27 84.4827 1573.21 84.36C1572.83 84.3152 1572.28 84.1269 1571.97 84.1731C1571.8 84.198 1571.62 84.3249 1571.39 84.3246C1569.88 84.3224 1568.22 83.8439 1566.78 83.4097C1564.22 82.6359 1561.84 81.2289 1559.95 79.2078C1559.47 78.6894 1559.06 78.3819 1558.37 78.3404C1557.76 78.3039 1557.15 78.4292 1556.54 78.4021C1554.92 78.3305 1553.53 77.4412 1552.07 76.8123C1551.84 78.8271 1551.1 81.013 1550.15 82.7736C1549.37 84.2093 1547.95 84.3263 1546.56 84.3597C1542.1 84.4665 1537.7 83.6915 1533.27 83.3878C1537.49 84.657 1541.89 85.3664 1546.06 86.8043C1547.94 87.4541 1546.39 88.6464 1545.5 89.4866C1544.05 90.8701 1542.91 92.6312 1542.08 94.5118C1540.17 91.6306 1536.59 89.5696 1533.25 90.1799C1529.56 90.8541 1526.66 95.5839 1528.73 99.275C1529.93 101.418 1532.31 102.379 1534.28 103.4C1532.58 104.932 1532.03 107.331 1530.94 109.308C1530.4 110.282 1529.66 111.376 1528.59 111.653C1528.19 111.756 1527.73 111.735 1527.41 112.03C1527 112.395 1526.88 112.827 1526.37 113.129C1524.34 114.338 1521.33 114.023 1519.74 112.15C1518.31 110.457 1518.88 107.976 1520.29 106.46C1518.29 105.457 1514.62 104.091 1515.66 100.941C1511.22 100.333 1500.9 92.3401 1507.25 87.4718C1504.1 85.3849 1501.4 80.6351 1503.79 76.7819C1505.63 73.8147 1509.5 72.7019 1512.61 72.7555Z" fill="#191847"/>
<path fill-rule="evenodd" clip-rule="evenodd" d="M1494.61 258.413L1584.93 409.424L1652.65 537.091H1667.23L1553.78 258.413L1494.61 258.413Z" fill="#784931"/>
<path fill-rule="evenodd" clip-rule="evenodd" d="M1643.73 531.197C1642.37 534.828 1641.69 537.544 1641.69 539.347C1641.69 541.539 1642.05 544.737 1642.78 548.943C1645.33 548.943 1668.18 548.943 1711.34 548.943C1713.12 543.053 1712.09 539.873 1708.26 539.403C1704.42 538.934 1701.23 538.509 1698.69 538.131L1666.83 523.924C1666.21 523.651 1665.49 523.927 1665.22 524.54C1665.22 524.55 1665.21 524.561 1665.21 524.571L1663.16 529.54C1659.61 531.198 1656.72 532.027 1654.5 532.027C1652.69 532.027 1650.2 531.298 1647.02 529.84C1645.8 529.281 1644.36 529.817 1643.8 531.037C1643.77 531.09 1643.75 531.143 1643.73 531.197Z" fill="#E4E4E4"/>
<path fill-rule="evenodd" clip-rule="evenodd" d="M1633.84 516.648L1661.97 508.139C1649.64 471.296 1634.54 430.752 1616.66 386.507C1598.77 342.262 1579.57 299.564 1559.04 258.413H1479.6C1502.42 310.467 1526.62 357.764 1552.19 400.305C1577.76 442.846 1604.98 481.627 1633.84 516.648Z" fill="#5C63AB"/>
<path fill-rule="evenodd" clip-rule="evenodd" d="M1488.68 258.413C1480.15 311.48 1463.71 379.278 1462.16 381.37C1461.13 382.765 1423.89 395.245 1350.44 418.809L1353.6 431.671C1441.18 419.033 1487.32 409.229 1492.04 402.257C1499.11 391.799 1534.42 309.181 1548.1 258.413H1488.68Z" fill="#915B3C"/>
<path fill-rule="evenodd" clip-rule="evenodd" d="M1376.26 407.69L1381.81 428.406C1447.32 434.152 1487.45 430 1502.22 415.951C1516.99 401.902 1533.82 349.389 1552.71 258.413H1476.96C1464.99 332.91 1458.3 371.723 1456.89 374.85C1455.47 377.977 1428.6 388.924 1376.26 407.69Z" fill="#8991DC"/>
<path fill-rule="evenodd" clip-rule="evenodd" d="M1354.04 413.45C1350.23 412.742 1347.44 412.544 1345.66 412.857C1343.5 413.237 1340.42 414.152 1336.4 415.602C1336.84 418.106 1340.81 440.613 1348.31 483.122C1354.42 483.854 1357.37 482.289 1357.17 478.427C1356.96 474.565 1356.83 471.351 1356.76 468.785L1365.21 434.935C1365.38 434.284 1364.98 433.624 1364.33 433.461C1364.32 433.458 1364.31 433.456 1364.3 433.453L1359.05 432.299C1356.8 429.087 1355.48 426.387 1355.09 424.199C1354.78 422.422 1355.07 419.84 1355.95 416.455C1356.29 415.155 1355.51 413.827 1354.21 413.488C1354.16 413.474 1354.1 413.461 1354.04 413.45Z" fill="#E4E4E4"/>
<path fill-rule="evenodd" clip-rule="evenodd" d="M1603.1 246.436L1636.34 281.21C1646.2 285.831 1654.24 290.833 1660.45 296.218C1661.83 298.003 1663.28 301.382 1656.57 299.658C1649.85 297.934 1642.71 296.423 1641.36 298.579C1640.01 300.735 1643.64 304.238 1641.19 307.036C1639.56 308.902 1634.5 302.61 1626.02 288.162L1590.98 265.814L1603.1 246.436ZM1432.36 204.284L1452.77 211.819C1419.74 256.06 1402.11 279.422 1399.88 281.905C1394.85 287.494 1396.81 299.505 1397.25 305.737C1388.2 306.387 1393.72 293.78 1382.23 294.775C1371.75 295.683 1362.17 300.761 1354.14 290.594C1353.15 289.344 1352.83 285.876 1357.04 284.791C1367.54 282.087 1383.33 276.41 1386.17 273.685C1390.05 269.97 1405.45 246.837 1432.36 204.284Z" fill="#915B3C"/>
<path fill-rule="evenodd" clip-rule="evenodd" d="M1611.45 251.051C1616.43 251.565 1621.63 253.321 1627.02 256.262C1629.67 257.709 1630.65 261.032 1629.2 263.684C1628.36 265.224 1626.89 266.199 1625.28 266.463C1626.24 267.456 1627.2 268.446 1628.18 269.434L1615.08 287.402C1578.11 260.041 1542.69 238.083 1531.21 201.652C1527.36 189.425 1536.04 151.731 1537.93 137.793L1551.65 134.8C1563 174.839 1580.91 214.491 1611.45 251.051Z" fill="#69A1AC"/>
<path fill-rule="evenodd" clip-rule="evenodd" d="M1470.27 258.532C1507.17 269.303 1536.8 274.527 1559.13 274.204C1561.9 274.164 1563.82 262.601 1563.13 259.23C1552.45 206.731 1546.07 168.553 1552.08 134.457C1548.21 135.685 1541.95 134.868 1533.31 132.006C1503.27 162.939 1485.21 201.322 1470.27 258.532Z" fill="#191847"/>
<path fill-rule="evenodd" clip-rule="evenodd" d="M1462.25 263.104C1461.19 261.676 1460.84 259.756 1461.49 257.956L1462.74 254.529C1463.59 252.207 1465.84 250.805 1468.19 250.937C1468.91 249.212 1469.57 247.489 1470.16 245.769C1475.22 231.235 1473.68 215.839 1476.41 201.469C1454.26 214.498 1432 239.813 1409.61 277.412L1388.17 266.772C1389.6 263.719 1391.05 260.711 1392.53 257.748C1390.18 255.805 1388.33 248.472 1390.72 247.722C1393.2 246.948 1395.74 246.544 1398.36 246.504C1430.09 187.718 1472.05 148.031 1524.21 127.441L1528.37 128.176L1537.82 129.842C1524.47 182.145 1559.43 307.64 1522.78 403.088C1485.85 404.758 1439.47 371.122 1386.62 382.14C1395.47 342.66 1440.52 302.391 1462.25 263.104Z" fill="#89C5CC"/>
<path fill-rule="evenodd" clip-rule="evenodd" d="M1528.94 129.509L1519.42 147.413L1529.34 163.844L1516.13 173.051L1535.11 224.408L1510.05 172.075L1523.08 162.74L1514.26 148.211L1528.94 129.509Z" fill="black" fill-opacity="0.1"/>
<path fill-rule="evenodd" clip-rule="evenodd" d="M1523.97 240.959C1521.33 240.493 1519.56 237.971 1520.03 235.326C1520.49 232.681 1523.02 230.916 1525.66 231.382C1528.3 231.848 1530.07 234.37 1529.6 237.015C1529.14 239.66 1526.62 241.425 1523.97 240.959ZM1525.1 269.549C1522.46 269.082 1520.69 266.56 1521.16 263.916C1521.62 261.271 1524.15 259.505 1526.79 259.972C1529.44 260.438 1531.2 262.96 1530.74 265.605C1530.27 268.249 1527.75 270.015 1525.1 269.549ZM1521.45 297.294C1518.8 296.827 1517.04 294.305 1517.5 291.661C1517.97 289.016 1520.49 287.25 1523.13 287.717C1525.78 288.183 1527.54 290.705 1527.08 293.35C1526.61 295.994 1524.09 297.76 1521.45 297.294Z" fill="black" fill-opacity="0.4"/>
<path fill-rule="evenodd" clip-rule="evenodd" d="M1067.91 248.071C1070.19 279.024 1216.84 370.152 1217.7 372.709C1218.08 373.845 1202.86 409.767 1172.05 480.474L1184.87 485.436C1232.13 410.553 1254.54 369.121 1252.12 361.142C1248.64 349.718 1210.71 312.138 1138.33 248.401L1067.91 248.071Z" fill="#B28B67"/>
<path fill-rule="evenodd" clip-rule="evenodd" d="M1175.42 464.505L1196.35 472.095C1240.49 422.487 1257.79 381.556 1254.63 360.701C1252.53 346.797 1214.73 309.28 1141.24 248.148L1066.41 248.147C1068.97 319.829 1204.89 372.982 1206.71 376.036C1208.53 379.091 1190.64 409.008 1175.42 464.505Z" fill="#2F3676"/>
<path fill-rule="evenodd" clip-rule="evenodd" d="M1167.3 478.105C1164.68 481.165 1163.05 483.575 1162.41 485.334C1161.63 487.474 1160.85 490.725 1160.07 495.089C1162.56 495.993 1184.86 504.112 1226.99 519.447C1230.82 514.331 1230.94 510.862 1227.36 509.04C1223.78 507.218 1220.82 505.671 1218.48 504.399L1192.43 479.213C1191.92 478.728 1191.12 478.742 1190.64 479.243C1190.63 479.252 1190.62 479.26 1190.62 479.269L1186.85 483.391C1182.79 483.747 1179.68 483.53 1177.51 482.741C1175.75 482.1 1173.58 480.502 1170.99 477.949C1170 476.97 1168.4 476.98 1167.42 477.973C1167.38 478.015 1167.34 478.06 1167.3 478.105Z" fill="#E4E4E4"/>
<path fill-rule="evenodd" clip-rule="evenodd" d="M1084.77 248.072L1019.45 404.316L955.237 536.408H970.386L1136.13 248.072H1084.77Z" fill="#997659"/>
<path fill-rule="evenodd" clip-rule="evenodd" d="M954.331 530.434C952.919 534.205 952.213 537.026 952.213 538.898C952.213 541.175 952.592 544.497 953.35 548.865C955.991 548.865 979.727 548.865 1024.56 548.865C1026.41 542.747 1025.34 539.445 1021.35 538.957C1017.37 538.469 1014.05 538.028 1011.42 537.635L978.321 522.879C977.684 522.596 976.938 522.882 976.654 523.519C976.649 523.529 976.644 523.54 976.64 523.551L974.512 528.713C970.822 530.435 967.823 531.296 965.515 531.296C963.64 531.296 961.051 530.539 957.748 529.024C956.48 528.443 954.982 529 954.4 530.267C954.375 530.322 954.352 530.377 954.331 530.434Z" fill="#E4E4E4"/>
<path fill-rule="evenodd" clip-rule="evenodd" d="M961.036 508.967L994.696 515.256C1020.72 477.137 1129.64 320.834 1141.59 248.072H1066.65C1026.77 300.671 985.844 470.217 961.036 508.967Z" fill="#5C63AB"/>
<path fill-rule="evenodd" clip-rule="evenodd" d="M1108.15 96.0306C1104.14 88.0554 1102.32 79.054 1105.21 70.1945C1113.53 44.6678 1148.6 59.4847 1152.43 74.3702C1156.26 89.2556 1147.12 122.313 1137.36 122.369C1133.47 122.392 1126.24 118.158 1119.49 111.441L1115.77 147.599L1086.37 140.267L1108.15 96.0306Z" fill="#B28B67"/>
<path fill-rule="evenodd" clip-rule="evenodd" d="M1153.73 80.9509C1153.87 79.1783 1153.63 77.1129 1153.45 75.3614C1153.23 73.1034 1152.57 70.9546 1151.78 68.8852C1150.29 64.9893 1148.25 61.2995 1145.79 58.0467C1141.31 52.1052 1134.81 47.7031 1127.57 46.8006C1123.91 46.3448 1120.13 46.8277 1116.64 48.3302C1113.49 49.6878 1110.2 52.0234 1106.72 51.3812C1102.92 50.6823 1100.32 46.5626 1097.83 43.7986C1095.02 40.6825 1091.84 38.1297 1088.05 36.5016C1081.71 33.7746 1074.95 34.4397 1069.05 38.6793C1062.78 43.1908 1057.17 50.701 1058.46 59.0742C1058.7 60.6307 1059.16 62.0084 1060.01 63.2653C1060.79 64.4179 1062.08 65.76 1062.13 67.3037C1062.18 68.9446 1060.39 70.6012 1059.55 71.86C1058.34 73.6636 1057.23 75.5976 1056.9 77.8042C1056.37 81.428 1057.77 85.365 1059.56 88.2812C1061.38 91.2488 1064 93.3456 1067.02 94.7613C1069.03 95.7066 1071.13 96.4762 1073.32 96.8557C1074.41 97.0441 1075.43 96.985 1076.52 97.0092C1077.58 97.0327 1078.08 97.4376 1078.79 98.1971C1082.12 101.726 1086.14 103.772 1090.81 104.535C1094.76 105.18 1099.44 105.362 1103.25 103.524C1107.47 101.483 1108.4 97.4476 1108.65 92.9492C1109.42 93.5954 1111.76 94.4628 1110.75 92.3946C1110.34 91.5755 1109.33 91.0309 1108.7 90.4501C1107.96 89.7738 1107.24 88.9588 1106.77 88.0376C1104.85 84.3181 1109.11 78.781 1112.73 78.5964C1118.1 78.3222 1117.48 85.6083 1120.59 88.3107C1122.38 89.8645 1124.88 88.9752 1126.78 87.9041C1129.33 86.4691 1131.38 84.2378 1133.24 81.9132C1134.78 79.9989 1136.26 78.0369 1137.81 76.1382C1138.53 75.2515 1140.89 72.8201 1140.35 71.4776C1144.1 71.6627 1147.72 74.1319 1150.32 76.8347C1151.4 77.952 1152.15 79.0758 1152.48 80.6567C1152.55 80.9954 1152.64 81.9735 1153.03 82.1096C1153.75 82.3631 1153.7 81.3963 1153.73 80.9509Z" fill="#191847"/>
<path fill-rule="evenodd" clip-rule="evenodd" d="M1188.33 237.142L1228.08 267.27C1238.95 270.393 1248.01 274.201 1255.26 278.693C1256.97 280.293 1259 283.508 1251.83 282.833C1244.67 282.159 1237.1 281.77 1236.06 284.189C1235.03 286.608 1239.32 289.598 1237.26 292.85C1235.89 295.019 1229.68 289.413 1218.63 276.034L1179.05 258.883L1188.33 237.142ZM1033.71 235.459L1060.09 236.022C1042.89 288.063 1033.61 315.673 1032.26 318.852C1029.21 326.005 1035.2 337.084 1037.74 343.026C1029.07 346.709 1030.23 332.528 1019.28 337.366C1009.29 341.782 1001.6 349.966 990.275 342.734C988.882 341.845 987.396 338.562 991.169 336.084C1000.57 329.908 1014.14 319.05 1016.02 315.43C1018.57 310.495 1024.47 283.837 1033.71 235.459Z" fill="#B28B67"/>
<path fill-rule="evenodd" clip-rule="evenodd" d="M1110.6 126.614L1121.55 124.941C1161.44 160.464 1176.91 227.64 1225.93 263.939L1213.72 278.469C1127.79 266.355 1107.87 184.397 1110.6 126.614Z" fill="#E87613"/>
<path fill-rule="evenodd" clip-rule="evenodd" d="M1060.64 262.292C1104.4 263.056 1136.6 263.618 1157.22 263.978C1161.63 264.055 1160.91 257.699 1160.33 254.487C1153.61 217.426 1125.56 177.112 1126.48 124.54L1098.7 119.706C1075.01 156.184 1066.25 201.451 1060.64 262.292Z" fill="#DDE3E9"/>
<path fill-rule="evenodd" clip-rule="evenodd" d="M1063.28 155.35C1059.25 154.122 1056.1 151.366 1053.81 147.084C1043.94 128.622 1047.8 118.619 1058.74 115.5C1069.68 112.381 1079.26 119.366 1096.6 119.669C1097.54 119.686 1098.4 119.76 1099.19 119.891L1107.9 120.538C1131.45 205.367 1137.37 261.793 1125.65 289.815L1049.64 288.488C1044.95 298.861 1040.49 307.579 1036.25 314.642L1015.53 314.281C1014.68 251.521 1030.59 198.544 1063.28 155.35Z" fill="#FF9B21"/>
<path fill-rule="evenodd" clip-rule="evenodd" d="M1066.95 245.435C1068.99 265.383 1072.62 279.898 1077.85 288.98L1049.64 288.488C1055.1 276.388 1060.87 262.037 1066.95 245.435Z" fill="black" fill-opacity="0.1"/>
<path fill-rule="evenodd" clip-rule="evenodd" d="M3334.98 105.792C3329.38 99.217 3325.59 91.1594 3326.22 82.1306C3328.05 56.1161 3364.26 61.839 3371.3 74.9688C3378.34 88.0987 3377.51 121.404 3368.4 123.75C3364.77 124.686 3357.04 122.394 3349.17 117.649L3354.11 152.605H3324.94L3334.98 105.792Z" fill="#B28B67"/>
<path fill-rule="evenodd" clip-rule="evenodd" d="M3358.43 76.873C3354.47 79.0877 3351.66 83.2374 3348.27 88.6807C3347.44 88.356 3346.54 88.1777 3345.6 88.1777C3341.57 88.1777 3338.31 91.4431 3338.31 95.4713C3338.31 97.5162 3339.15 99.3646 3340.5 100.689C3338.82 103.071 3336.92 105.559 3334.76 108.127C3326.67 103.275 3320.66 89.1324 3328.38 75.4798C3335.02 48.1325 3372.67 65.1067 3379.91 60.4944C3381.49 70.4183 3376.39 78.4201 3358.43 76.873Z" fill="#191847"/>
<path fill-rule="evenodd" clip-rule="evenodd" d="M3323.76 258.137L3383.42 409.148L3423.43 536.815H3439.23L3378.06 258.137L3323.76 258.137Z" fill="#997659"/>
<path fill-rule="evenodd" clip-rule="evenodd" d="M3311.75 258.137C3311.11 311.203 3301.85 382.648 3300.37 385.956C3299.38 388.162 3265.32 416.205 3198.17 470.087L3209.05 481.734C3288.28 435.537 3329.72 409.358 3333.39 403.196C3338.89 393.954 3356.79 308.905 3371.17 258.137H3311.75Z" fill="#B28B67"/>
<path fill-rule="evenodd" clip-rule="evenodd" d="M3196.72 466.199C3193.06 467.491 3190.54 468.716 3189.16 469.875C3187.48 471.284 3185.27 473.62 3182.52 476.883C3184.15 478.831 3198.84 496.338 3226.58 529.404C3232.24 526.983 3234.01 524.151 3231.91 520.908C3229.8 517.666 3228.07 514.951 3226.73 512.762L3217.13 479.219C3216.95 478.574 3216.28 478.2 3215.63 478.385C3215.62 478.388 3215.61 478.391 3215.6 478.395L3210.47 480.02C3206.92 478.363 3204.43 476.684 3203 474.982C3201.84 473.599 3200.8 471.221 3199.87 467.847C3199.51 466.553 3198.18 465.792 3196.88 466.147C3196.83 466.163 3196.77 466.18 3196.72 466.199Z" fill="#E4E4E4"/>
<path fill-rule="evenodd" clip-rule="evenodd" d="M3416.96 530.921C3415.6 534.552 3414.92 537.268 3414.92 539.07C3414.92 541.262 3415.29 544.461 3416.02 548.667C3418.56 548.667 3441.41 548.667 3484.57 548.667C3486.36 542.776 3485.33 539.596 3481.49 539.127C3477.65 538.657 3474.46 538.233 3471.92 537.855L3440.06 523.648C3439.45 523.375 3438.73 523.65 3438.45 524.263C3438.45 524.274 3438.45 524.284 3438.44 524.295L3436.39 529.264C3432.84 530.922 3429.95 531.751 3427.73 531.751C3425.93 531.751 3423.43 531.022 3420.25 529.564C3419.03 529.004 3417.59 529.54 3417.03 530.761C3417.01 530.813 3416.98 530.867 3416.96 530.921Z" fill="#E4E4E4"/>
<path fill-rule="evenodd" clip-rule="evenodd" d="M3363.87 523.665L3439 515.511L3383.32 258.137H3316.04L3363.87 523.665Z" fill="#69A1AC"/>
<path fill-rule="evenodd" clip-rule="evenodd" d="M3213.71 451.297L3262.99 509.629C3314.89 452.938 3345.15 415.947 3353.76 398.656C3362.38 381.365 3370.12 334.526 3377 258.137H3301.25C3297.49 325.341 3294.96 360.506 3293.65 363.633C3292.35 366.76 3265.7 395.982 3213.71 451.297Z" fill="#89C5CC"/>
<path fill-rule="evenodd" clip-rule="evenodd" d="M3433.43 243.443L3469.15 278.07C3479.54 282.475 3488.06 287.34 3494.7 292.663C3496.19 294.452 3497.82 297.881 3490.79 296.347C3483.77 294.813 3476.31 293.513 3474.99 295.782C3473.67 298.052 3477.56 301.53 3475.12 304.501C3473.49 306.481 3468.02 300.182 3458.71 285.603L3421.56 263.842L3433.43 243.443ZM3258.75 212.104L3286.36 212.207C3265.33 279.912 3254.17 315.361 3252.87 318.555C3249.95 325.74 3256.13 336.684 3258.77 342.564C3250.17 346.388 3251.08 332.227 3240.23 337.242C3230.33 341.82 3222.8 350.114 3211.36 343.1C3209.95 342.237 3208.41 338.99 3212.13 336.453C3221.41 330.131 3234.78 319.067 3236.59 315.426C3239.05 310.46 3246.44 276.019 3258.75 212.104Z" fill="#B28B67"/>
<path fill-rule="evenodd" clip-rule="evenodd" d="M3342.89 134.271L3353.79 132.412C3370.97 192.747 3459.23 233.873 3464.65 256.428C3466.63 264.699 3460.64 268.881 3463.74 271.4L3449.56 281.709C3447.16 278.927 3442.04 284.017 3431.35 280.456C3420.65 276.896 3342.89 205.712 3342.89 134.271Z" fill="#DB2721"/>
<path fill-rule="evenodd" clip-rule="evenodd" d="M3361.23 142.292C3359.97 222.17 3406.45 242.546 3396.09 274.59C3387.55 301.052 3305.73 329.498 3291.57 303.559C3285.84 293.06 3283.24 280.361 3282.95 266.555C3279.33 277.162 3276.47 286.293 3274.36 293.948C3270.73 307.155 3256.65 309.254 3256.65 314.342L3238.1 309.254C3239.36 302.342 3230.61 298.977 3232.96 283.535C3243.46 214.347 3271.69 164.195 3317.64 133.079L3318.12 126.175C3318.32 123.498 3320.64 121.48 3323.31 121.662L3357.64 124.047C3360.32 124.228 3362.34 126.551 3362.16 129.23C3362.16 129.23 3362.16 129.233 3362.15 129.234L3361.23 142.292Z" fill="#FF4133"/>
</svg>
